<svg width="320" height="84" viewBox="0 0 320 84" fill="none" xmlns="http://www.w3.org/2000/svg">
  <rect x="6" y="6" width="72" height="72" rx="24" fill="url(#paint0_linear)"/>
  <path d="M58.3 49.8C62.77 45.5 67 40.26 67 33.8C67 26.18 60.82 20 53.2 20C48.47 20 45.22 21.58 41.9 24.9C38.58 21.58 35.33 20 30.6 20C22.98 20 16.8 26.18 16.8 33.8C16.8 40.27 21.03 45.5 25.5 49.8L41.9 65L58.3 49.8Z" fill="white"/>
  <path d="M19.6 41.2H31.6L35 34.6L41.2 48.2L48.4 28L54 41.2H64.2" stroke="#9FE5D3" stroke-width="4" stroke-linecap="round" stroke-linejoin="round"/>
  <path d="M99 27.5H136.8V37.7H110.8V47.1H133.4V57.2H110.8V76H99V27.5Z" fill="#0B1524"/>
  <path d="M142.6 27.5H154.4V76H142.6V27.5Z" fill="#0B1524"/>
  <path d="M164.7 27.5H177L201.4 58.1V27.5H213.1V76H201.9L176.4 44.2V76H164.7V27.5Z" fill="#0B1524"/>
  <path d="M224.6 27.5H236.4V47.1L255.3 27.5H270L251.2 47.3L271.1 76H257L243.5 55.8L236.4 63.2V76H224.6V27.5Z" fill="#0B1524"/>
  <path d="M272.3 51.9C272.3 37.9 283.2 26.7 298.4 26.7C307.8 26.7 313.4 29.2 318.3 33.9L310.8 42.6C307.3 39.4 304.2 37.6 298.3 37.6C290.1 37.6 283.6 44 283.6 52C283.6 60 290 66.2 298.7 66.2C304.8 66.2 307.7 64.1 311 61.2L318.5 69C313 74.1 306.7 76.9 298.3 76.9C283.5 76.9 272.3 66.2 272.3 51.9Z" fill="#149A82"/>
  <defs>
    <linearGradient id="paint0_linear" x1="14" y1="10" x2="70" y2="74" gradientUnits="userSpaceOnUse">
      <stop stop-color="#0052CC"/>
      <stop offset="1" stop-color="#149A82"/>
    </linearGradient>
  </defs>
</svg>
